<svg width="14" height="20" viewBox="0 0 14 20" fill="none" xmlns="http://www.w3.org/2000/svg">
<path d="M7.587 12.3571L7.57708 12.3504L7.56685 12.3441C7.43091 12.261 7.11434 12.1253 6.66877 11.9516C6.20303 11.77 5.55011 11.5297 4.70188 11.2352C3.4007 10.7633 2.46715 10.1152 1.85703 9.30477C1.24935 8.49762 0.931881 7.48905 0.931881 6.23853C0.931881 4.35713 1.59371 2.93159 2.89817 1.89934C4.09794 0.9829 5.53527 0.5 7.30591 0.5C8.83867 0.5 10.1458 0.880789 11.2445 1.59375C12.3144 2.28794 12.8162 3.16888 12.8162 4.22018C12.8162 4.84675 12.6359 5.34534 12.2627 5.75509C11.9033 6.1498 11.4696 6.32569 10.8689 6.32569C10.2752 6.32569 9.55588 6.03546 8.6582 5.33135L8.65822 5.33132L8.65335 5.3276C8.35808 5.10179 8.08342 4.91022 7.83557 4.77333C7.60057 4.64354 7.32856 4.52752 7.05399 4.52752C6.72249 4.52752 6.38734 4.61252 6.13659 4.85907C5.88443 5.107 5.7982 5.43891 5.7982 5.76147C5.7982 6.23888 6.10786 6.59969 6.47634 6.85562C6.84983 7.11502 7.37468 7.33464 8.02371 7.52413C9.71137 8.06246 10.9363 8.69595 11.8019 9.44279L11.8019 9.44281L11.8059 9.44616C12.9332 10.3986 13.5 11.7155 13.5 13.5046C13.5 15.474 12.8634 16.9379 11.5918 18.0018L11.5917 18.0018L11.5888 18.0043C10.4076 19.008 8.84265 19.5 6.83804 19.5C4.84357 19.5 3.23732 18.9765 1.97729 17.9292C0.977065 17.0786 0.5 16.1805 0.5 15.156C0.5 14.4736 0.705011 13.9458 1.13726 13.4995C1.63315 13.0611 2.16273 12.8303 2.8072 12.8303C3.33989 12.8303 3.95301 13.0574 4.69245 13.6399C5.18739 14.0324 5.61417 14.3338 5.97324 14.5394C6.31298 14.734 6.66258 14.8853 6.98201 14.8853C7.34032 14.8853 7.69355 14.7859 7.94877 14.5077C8.19649 14.2377 8.27378 13.8832 8.27378 13.5413C8.27378 13.0461 8.01508 12.6481 7.587 12.3571Z" fill="white" stroke="black"/>
</svg>
